<mxfile host="Electron" agent="Mozilla/5.0 (Windows NT 10.0; Win64; x64) AppleWebKit/537.36 (KHTML, like Gecko) draw.io/27.0.9 Chrome/134.0.6998.205 Electron/35.4.0 Safari/537.36" version="27.0.9">
  <diagram name="Page-1" id="oy8N1jin1j9htWy917Qd">
    <mxGraphModel dx="1405" dy="1582" grid="1" gridSize="10" guides="1" tooltips="1" connect="1" arrows="1" fold="1" page="1" pageScale="1" pageWidth="827" pageHeight="1169" background="none" math="0" shadow="0">
      <root>
        <mxCell id="0" />
        <mxCell id="1" parent="0" />
        <mxCell id="XS-9XeeDP06U5t9WrC-O-5" value="" style="edgeStyle=orthogonalEdgeStyle;rounded=0;orthogonalLoop=1;jettySize=auto;html=1;" parent="1" source="XS-9XeeDP06U5t9WrC-O-1" target="XS-9XeeDP06U5t9WrC-O-2" edge="1">
          <mxGeometry relative="1" as="geometry" />
        </mxCell>
        <mxCell id="XS-9XeeDP06U5t9WrC-O-1" value="Start" style="ellipse;whiteSpace=wrap;html=1;fillColor=#00FF00;fontColor=#ffffff;strokeColor=#005700;rounded=0;" parent="1" vertex="1">
          <mxGeometry x="445" y="-110" width="135" height="100" as="geometry" />
        </mxCell>
        <mxCell id="XS-9XeeDP06U5t9WrC-O-6" value="" style="edgeStyle=orthogonalEdgeStyle;rounded=0;orthogonalLoop=1;jettySize=auto;html=1;" parent="1" source="XS-9XeeDP06U5t9WrC-O-2" target="XS-9XeeDP06U5t9WrC-O-4" edge="1">
          <mxGeometry relative="1" as="geometry" />
        </mxCell>
        <mxCell id="XS-9XeeDP06U5t9WrC-O-2" value="&lt;div&gt;&lt;font style=&quot;font-size: 24px;&quot;&gt;Print:&quot;Name&quot;&amp;nbsp;&lt;/font&gt;&lt;/div&gt;" style="shape=parallelogram;perimeter=parallelogramPerimeter;whiteSpace=wrap;html=1;fixedSize=1;align=center;fillColor=#1ba1e2;strokeColor=#006EAF;size=15;rounded=0;textShadow=1;verticalAlign=middle;fontColor=#ffffff;" parent="1" vertex="1">
          <mxGeometry x="388" y="50" width="250" height="90" as="geometry" />
        </mxCell>
        <mxCell id="XS-9XeeDP06U5t9WrC-O-4" value="&lt;div&gt;End&lt;/div&gt;&lt;div&gt;&lt;br&gt;&lt;/div&gt;" style="ellipse;whiteSpace=wrap;html=1;fillColor=#FF0000;fontColor=#ffffff;strokeColor=#6F0000;rounded=0;" parent="1" vertex="1">
          <mxGeometry x="446" y="200" width="132.5" height="90" as="geometry" />
        </mxCell>
        <mxCell id="XS-9XeeDP06U5t9WrC-O-7" value="&lt;h1 style=&quot;direction: ltr; unicode-bidi: embed;&quot;&gt;&lt;span style=&quot;font-size: 21px; background-color: transparent; color: light-dark(rgb(0, 0, 0), rgb(255, 255, 255)); font-weight: normal;&quot;&gt;#1&lt;/span&gt;&lt;/h1&gt;&lt;h1 style=&quot;direction: ltr; unicode-bidi: embed;&quot;&gt;&lt;span style=&quot;color: red; font-size: 20pt; background-color: transparent; font-weight: normal;&quot;&gt;This flowchart for&amp;nbsp; a program&amp;nbsp; that prints a name on the screen.&lt;/span&gt;&lt;/h1&gt;&lt;p style=&quot;margin: 0cm 0cm 8pt 37.7pt; text-indent: -19.7pt; direction: ltr; unicode-bidi: embed;&quot; class=&quot;MsoListParagraph&quot;&gt;&lt;br&gt;&lt;/p&gt;" style="whiteSpace=wrap;html=1;aspect=fixed;align=left;rounded=0;" parent="1" vertex="1">
          <mxGeometry x="-30" y="-110" width="400" height="400" as="geometry" />
        </mxCell>
      </root>
    </mxGraphModel>
  </diagram>
</mxfile>
